<?xml version="1.0" standalone="no"?>
<!DOCTYPE svg PUBLIC "-//W3C//DTD SVG 20010904//EN"
 "http://www.w3.org/TR/2001/REC-SVG-20010904/DTD/svg10.dtd">
<svg version="1.0" xmlns="http://www.w3.org/2000/svg"
 width="292.000000pt" height="292.000000pt" viewBox="0 0 292.000000 292.000000"
 preserveAspectRatio="xMidYMid meet">
<metadata>
Created by potrace 1.14, written by Peter Selinger 2001-2017
</metadata>
<g transform="translate(0.000000,292.000000) scale(0.100000,-0.100000)"
fill="#000000" stroke="none">
<path d="M1915 2905 c-77 -15 -104 -27 -144 -60 -33 -28 -81 -111 -81 -141 0
-10 -5 -14 -14 -11 -83 32 -270 47 -387 32 -105 -13 -315 -77 -362 -110 -17
-12 -24 -12 -51 2 -51 27 -92 32 -116 16 -24 -17 -55 -74 -64 -120 -5 -23 -15
-34 -36 -42 -64 -22 -174 -148 -233 -264 -23 -48 -31 -79 -34 -137 -4 -71 -3
-78 29 -131 l35 -56 -29 -16 c-48 -27 -84 -131 -112 -317 -7 -52 -13 -135 -12
-185 1 -82 4 -95 34 -150 38 -67 87 -133 116 -154 15 -11 17 -22 13 -62 -7
-57 -32 -109 -52 -109 -13 0 -36 -31 -41 -55 -14 -70 -12 -102 20 -247 2 -10
1 -20 -3 -22 -4 -3 -7 4 -8 14 -4 45 -58 90 -108 90 -13 0 -26 6 -28 13 -4 9
-6 9 -6 0 -1 -7 -8 -13 -17 -13 -9 0 -12 5 -8 12 6 11 4 11 -7 1 -7 -7 -28
-13 -46 -13 l-33 0 0 -180 0 -181 43 5 c23 3 42 5 42 5 0 1 -1 26 -2 55 -2 55
-2 55 25 51 46 -5 82 6 112 37 17 16 30 39 30 50 0 12 3 19 6 15 4 -3 6 -53 5
-109 l-2 -104 118 1 118 0 0 33 -1 32 23 -24 c79 -86 249 -31 243 77 -1 18 -2
48 -1 66 l1 35 32 -31 c35 -33 52 -40 110 -47 21 -2 42 -7 48 -11 29 -18 -8
-54 -57 -55 -27 0 -34 5 -39 25 -5 21 -12 25 -45 25 -33 0 -39 -3 -39 -21 0
-33 31 -77 64 -91 28 -11 141 -20 131 -10 -3 3 8 13 24 23 40 24 60 88 41 125
-8 14 -26 32 -40 39 -22 13 -23 14 -5 15 11 1 30 3 42 6 22 4 22 2 20 -106
l-2 -110 42 3 43 2 0 78 0 77 55 0 c42 0 55 -3 55 -15 0 -8 -6 -15 -12 -15
-10 0 -10 -2 0 -9 8 -4 13 -14 12 -22 -1 -8 -2 -33 -1 -56 l1 -42 38 2 37 2 0
122 0 123 25 1 c14 0 34 2 45 4 50 8 115 13 115 9 0 -2 -7 -21 -16 -42 -10
-20 -18 -41 -20 -47 -1 -5 -16 -45 -33 -88 -17 -43 -31 -80 -31 -81 0 -2 19
-3 41 -2 39 1 42 4 58 42 16 40 16 40 68 40 58 -1 64 -5 79 -49 l11 -32 376 0
c330 0 377 2 378 15 1 8 2 22 3 30 3 29 -13 36 -83 34 l-71 -2 0 34 0 34 75 0
75 0 0 41 c0 41 0 41 -37 39 -21 -1 -55 -2 -75 -1 -35 1 -38 3 -38 30 l0 30
77 -2 77 -2 43 -63 c41 -59 43 -67 46 -140 l2 -77 38 -1 37 -1 0 73 c0 72 0
73 66 179 36 58 64 108 62 110 -5 6 -36 9 -63 7 -14 -1 -33 -23 -59 -67 -21
-36 -41 -65 -46 -65 -8 0 -17 17 -18 34 0 5 -4 12 -9 15 -5 3 -19 23 -32 44
-13 21 -31 37 -41 37 -16 0 -18 8 -15 72 2 40 -3 126 -12 191 l-17 118 31 25
c50 38 64 90 62 218 -1 61 -5 136 -10 166 -5 30 -11 71 -14 90 -3 19 -12 77
-20 128 -9 52 -12 98 -9 104 4 6 2 8 -4 4 -6 -3 -13 3 -17 13 -7 24 4 93 15
86 4 -2 8 31 9 74 4 148 -50 283 -153 386 -33 34 -71 65 -83 69 -17 6 -23 15
-24 39 -4 172 -41 213 -155 169 -44 -18 -52 -18 -69 -6 -11 8 -39 20 -62 26
l-43 10 18 30 c26 45 107 117 157 139 53 24 61 54 18 70 -40 15 -190 17 -258
4z m-1613 -2328 c24 -37 -6 -77 -58 -77 l-34 0 0 49 0 49 42 -4 c23 -3 46 -10
50 -17z m495 5 c8 -5 13 -38 14 -86 2 -67 -1 -81 -17 -93 -18 -14 -78 -12 -92
2 -3 3 -7 29 -8 58 -1 47 1 53 27 69 16 10 34 27 41 38 14 22 17 23 35 12z
m1060 -111 c1 -62 0 -111 -1 -110 -7 9 -86 210 -86 219 0 5 19 8 43 7 l42 -3
2 -113z m153 94 c36 -4 67 -9 69 -11 10 -9 7 -64 -3 -64 -7 0 -8 -3 -1 -8 13
-9 13 -75 0 -83 -5 -3 -39 -6 -75 -5 l-65 1 0 92 c0 50 2 90 5 88 3 -2 34 -6
70 -10z m302 -110 l-4 -64 -71 2 -72 2 -1 73 -1 72 46 1 c54 1 80 5 89 14 11
11 17 -32 14 -100z m-949 88 c-7 -2 -21 -2 -30 0 -10 3 -4 5 12 5 17 0 24 -2
18 -5z m351 -29 c11 -29 6 -44 -14 -44 -15 0 -19 5 -16 23 3 12 5 25 5 30 2
13 19 7 25 -9z m-1147 -21 l52 -5 -1 -48 0 -48 -74 1 -74 0 0 60 c0 57 1 59
23 52 12 -4 45 -9 74 -12z"/>
<path d="M1366 223 c-4 -4 -19 -7 -34 -8 -17 0 -26 -5 -24 -13 1 -8 -2 -11 -8
-7 -6 3 -8 11 -5 16 4 5 -5 9 -19 9 -31 0 -34 -20 -6 -40 16 -11 20 -26 20
-68 0 -33 4 -51 10 -47 6 3 10 1 10 -5 0 -27 24 -1 24 26 1 16 4 34 9 41 4 6
3 14 -3 18 -18 11 -10 25 15 25 26 0 34 15 13 23 -10 3 -10 7 1 20 13 17 11
24 -3 10z m-59 -105 c-3 -8 -6 -5 -6 6 -1 11 2 17 5 13 3 -3 4 -12 1 -19z"/>
<path d="M1030 210 c0 -15 14 -19 34 -9 20 10 20 9 2 -5 -10 -9 -22 -13 -26
-11 -3 2 -7 -16 -7 -40 -1 -25 3 -43 7 -40 4 3 11 -2 14 -11 9 -23 7 -31 -4
-14 -5 8 -13 11 -17 6 -14 -13 29 -36 69 -36 41 0 47 9 21 35 -16 16 -17 16
-30 -1 -13 -17 -13 -17 -10 6 2 14 7 24 10 23 4 -2 16 -3 27 -3 11 0 20 -6 20
-14 0 -19 44 -46 73 -46 34 0 50 23 42 59 -5 24 -11 29 -33 28 -18 -1 -27 4
-30 16 -4 20 27 24 46 5 18 -18 16 12 -3 40 -17 24 -62 25 -90 2 -12 -10 -15
-10 -15 4 0 12 -10 15 -50 15 -27 -1 -50 -5 -50 -9z m80 -4 c0 -3 -4 -8 -10
-11 -5 -3 -10 -1 -10 4 0 6 5 11 10 11 6 0 10 -2 10 -4z m106 -9 c4 -3 -2 -5
-13 -3 -27 6 -39 -4 -46 -36 -6 -22 -3 -28 22 -39 16 -7 27 -17 25 -21 -3 -4
0 -8 5 -8 6 0 11 5 11 12 0 6 3 8 6 5 4 -4 1 -13 -6 -22 -11 -14 -14 -13 -27
2 -8 10 -11 12 -7 4 5 -9 3 -12 -4 -7 -7 4 -12 13 -12 20 0 8 -9 16 -20 19
-11 3 -20 12 -20 21 0 10 -9 16 -22 16 -19 0 -20 -2 -8 -11 12 -9 12 -10 1 -7
-8 3 -17 10 -19 16 -5 16 55 16 61 0 3 -7 6 -3 6 9 1 32 45 52 67 30z m-159
-47 c1 -11 -2 -22 -6 -24 -6 -4 -7 26 -2 42 3 8 7 -1 8 -18z"/>
<path d="M1463 185 c-16 -29 -15 -30 3 -15 10 8 16 10 12 6 -4 -5 -3 -15 3
-22 9 -11 14 -11 26 2 9 8 18 12 22 8 3 -3 -14 -24 -39 -45 -43 -38 -44 -40
-26 -54 22 -16 101 -20 111 -6 3 5 -2 17 -12 26 -14 14 -14 18 -2 25 9 6 16 4
20 -9 11 -28 58 -54 85 -47 13 4 24 11 24 17 0 5 10 3 22 -5 29 -21 126 -23
109 -3 -6 8 -8 17 -4 20 3 4 -1 7 -11 7 -15 0 -15 2 3 22 11 11 18 24 16 28
-2 4 2 7 10 7 8 0 12 -4 9 -9 -3 -4 -1 -8 5 -8 6 0 7 -8 4 -17 -6 -16 -5 -17
13 -3 18 14 18 14 -1 -9 -19 -22 -19 -23 0 -37 10 -8 22 -14 25 -14 4 0 8 30
9 68 1 47 -3 73 -13 87 -15 20 -16 19 -41 -10 -18 -20 -28 -26 -32 -17 -19 47
-79 55 -100 12 -10 -21 -10 -26 2 -28 8 -2 15 -8 15 -14 0 -6 9 -3 20 7 23 21
39 13 20 -10 -8 -9 -9 -15 -2 -15 6 0 16 8 21 17 6 10 11 14 11 9 0 -12 -78
-84 -85 -78 -2 3 3 11 13 19 15 13 15 13 -6 8 -19 -6 -23 -3 -20 12 5 30 -23
84 -49 94 -26 9 -63 -3 -63 -22 0 -5 10 -3 23 5 16 11 26 12 37 5 13 -9 13
-10 -1 -6 -9 3 -26 -1 -37 -8 -10 -8 -22 -11 -26 -8 -3 3 -6 1 -6 -5 0 -5 6
-12 13 -15 9 -4 9 -7 -1 -18 -7 -8 -12 -9 -11 -4 3 15 -17 59 -33 73 -27 22
-68 10 -85 -23z m82 7 c-3 -3 -11 0 -18 7 -9 10 -8 11 6 5 10 -3 15 -9 12 -12z
m235 7 c12 -8 11 -9 -6 -4 -14 3 -28 -1 -38 -10 -9 -9 -16 -13 -16 -8 0 12 22
33 35 33 5 0 17 -5 25 -11z m82 -19 c-22 -26 -24 -25 -10 5 6 13 15 22 19 19
5 -2 1 -14 -9 -24z m-202 -39 c0 -35 -26 -62 -36 -37 -9 24 4 66 21 66 10 0
15 -10 15 -29z m-123 -9 c-10 -10 -14 -22 -10 -27 5 -4 2 -5 -5 -1 -7 4 -9 13
-5 19 12 20 28 35 32 31 2 -2 -3 -12 -12 -22z m140 -14 c-3 -7 -5 -2 -5 12 0
14 2 19 5 13 2 -7 2 -19 0 -25z m-80 -20 c-3 -8 -6 -5 -6 6 -1 11 2 17 5 13 3
-3 4 -12 1 -19z m-111 -13 c-9 -9 -16 -13 -16 -8 0 12 22 34 28 28 2 -2 -3
-11 -12 -20z m184 11 c0 -3 -4 -8 -10 -11 -5 -3 -10 -1 -10 4 0 6 5 11 10 11
6 0 10 -2 10 -4z"/>
<path d="M1200 150 c0 -6 7 -10 15 -10 8 0 15 2 15 4 0 2 -7 6 -15 10 -8 3
-15 1 -15 -4z"/>
<path d="M1740 119 c0 -5 5 -7 10 -4 6 3 10 8 10 11 0 2 -4 4 -10 4 -5 0 -10
-5 -10 -11z"/>
<path d="M1366 91 c-7 -10 19 -41 35 -41 5 0 9 5 9 10 0 6 -4 10 -10 10 -5 0
-9 5 -7 11 3 15 -19 23 -27 10z"/>
</g>
</svg>
